<svg width="18" height="20" viewBox="0 0 18 20" fill="none" xmlns="http://www.w3.org/2000/svg">
<path fill-rule="evenodd" clip-rule="evenodd" d="M9 0C6.02866 0 3.67077 1.76103 3.12131 4H3H2H1C0.447715 4 0 4.44772 0 5C0 5.55228 0.447715 6 1 6H2V15.8L2 15.8385C1.99998 16.3657 1.99997 16.8205 2.03057 17.195C2.06287 17.5904 2.13419 17.9836 2.32698 18.362C2.6146 18.9265 3.07354 19.3854 3.63803 19.673C4.01641 19.8658 4.40963 19.9371 4.80497 19.9694C5.17954 20 5.63429 20 6.16143 20H6.2H11.8H11.8386C12.3657 20 12.8205 20 13.195 19.9694C13.5904 19.9371 13.9836 19.8658 14.362 19.673C14.9265 19.3854 15.3854 18.9265 15.673 18.362C15.8658 17.9836 15.9371 17.5904 15.9694 17.195C16 16.8205 16 16.3657 16 15.8385V15.8V6H17C17.5523 6 18 5.55228 18 5C18 4.44772 17.5523 4 17 4H16H15H14.8787C14.3292 1.76103 11.9713 0 9 0ZM4 15.8V6H14V15.8C14 16.3766 13.9992 16.7488 13.9761 17.0322C13.9539 17.3038 13.9162 17.4045 13.891 17.454C13.7951 17.6422 13.6422 17.7951 13.454 17.891C13.4045 17.9162 13.3038 17.9539 13.0322 17.9761C12.7488 17.9992 12.3766 18 11.8 18H6.2C5.62345 18 5.25117 17.9992 4.96784 17.9761C4.69617 17.9539 4.59545 17.9162 4.54601 17.891C4.35785 17.7951 4.20487 17.6422 4.10899 17.454C4.0838 17.4045 4.04612 17.3038 4.02393 17.0322C4.00078 16.7488 4 16.3766 4 15.8ZM9 2C7.03842 2 5.75859 2.96428 5.24932 4H12.7507C12.2414 2.96428 10.9616 2 9 2ZM7 8C7.55228 8 8 8.44771 8 9V14C8 14.5523 7.55228 15 7 15C6.44772 15 6 14.5523 6 14V9C6 8.44771 6.44772 8 7 8ZM11 8C11.5523 8 12 8.44771 12 9V14C12 14.5523 11.5523 15 11 15C10.4477 15 10 14.5523 10 14V9C10 8.44771 10.4477 8 11 8Z" fill="#D90815"/>
</svg>
