<svg width="20" height="14" viewBox="0 0 20 14" fill="none" xmlns="http://www.w3.org/2000/svg">
<path fill-rule="evenodd" clip-rule="evenodd" d="M10.0004 2C14.2532 2 16.7517 5.29755 17.7462 7C16.7517 8.70245 14.2532 12 10.0004 12C5.74764 12 3.24916 8.70245 2.25469 7C3.24916 5.29755 5.74764 2 10.0004 2ZM19.8166 6.61767C19.9412 6.86136 19.9412 7.13864 19.8166 7.38233C19.0692 8.84443 16.0078 14 10.0004 14C3.99302 14 0.931653 8.84443 0.184246 7.38233C0.0596786 7.13864 0.0596782 6.86136 0.184246 6.61767C0.931651 5.15557 3.99302 0 10.0004 0C16.0078 0 19.0692 5.15557 19.8166 6.61767ZM10.0004 10C11.6573 10 13.0004 8.65685 13.0004 7C13.0004 5.34315 11.6573 4 10.0004 4C8.34358 4 7.00043 5.34315 7.00043 7C7.00043 8.65685 8.34358 10 10.0004 10Z" fill="#0E2739"/>
</svg>
