<svg width="20" height="20" viewBox="0 0 20 20" fill="none" xmlns="http://www.w3.org/2000/svg">
<path fill-rule="evenodd" clip-rule="evenodd" d="M13.7929 1.79288C15.0118 0.573925 16.9882 0.573924 18.2071 1.79288C19.4261 3.01183 19.4261 4.98814 18.2071 6.20709L16.7071 7.70709L11.7071 12.7071C11.5196 12.8946 11.2652 13 11 13H10H8C7.44772 13 7 12.5523 7 12V9.99998V8.99998C7 8.73477 7.10536 8.48041 7.29289 8.29288L12.2929 3.29288L13.7929 1.79288ZM10.4142 11L9 9.58577V9.4142L13 5.4142L14.5858 6.99998L10.5858 11H10.4142ZM16.7929 3.20709C16.355 2.76919 15.645 2.76919 15.2071 3.20709L14.4142 3.99998L16 5.58577L16.7929 4.79287C17.2308 4.35497 17.2308 3.64499 16.7929 3.20709ZM6.7587 0.999981L6.8 0.999982H7C7.55229 0.999982 8 1.4477 8 1.99998C8 2.55227 7.55229 2.99998 7 2.99998H6.8C5.94342 2.99998 5.36113 3.00076 4.91104 3.03753C4.47262 3.07335 4.24842 3.13828 4.09202 3.21797C3.7157 3.40972 3.40974 3.71568 3.21799 4.092C3.1383 4.2484 3.07337 4.4726 3.03755 4.91102C3.00078 5.36111 3 5.9434 3 6.79998V13.2C3 14.0566 3.00078 14.6389 3.03755 15.0889C3.07337 15.5274 3.1383 15.7516 3.21799 15.908C3.40974 16.2843 3.7157 16.5902 4.09202 16.782C4.24842 16.8617 4.47262 16.9266 4.91104 16.9624C5.36113 16.9992 5.94342 17 6.8 17H13.2C14.0566 17 14.6389 16.9992 15.089 16.9624C15.5274 16.9266 15.7516 16.8617 15.908 16.782C16.2843 16.5902 16.5903 16.2843 16.782 15.908C16.8617 15.7516 16.9266 15.5274 16.9624 15.0889C16.9992 14.6389 17 14.0566 17 13.2V13C17 12.4477 17.4477 12 18 12C18.5523 12 19 12.4477 19 13V13.2V13.2413C19 14.0463 19 14.7106 18.9558 15.2518C18.9099 15.8139 18.8113 16.3306 18.564 16.8159C18.1805 17.5686 17.5686 18.1805 16.816 18.564C16.3306 18.8113 15.8139 18.9099 15.2518 18.9558C14.7106 19 14.0463 19 13.2413 19H13.2H6.8H6.75868C5.95372 19 5.28937 19 4.74818 18.9558C4.18608 18.9099 3.66937 18.8113 3.18404 18.564C2.43139 18.1805 1.81947 17.5686 1.43598 16.8159C1.18868 16.3306 1.09012 15.8139 1.04419 15.2518C0.999978 14.7106 0.999988 14.0463 1 13.2413V13.2413V13.2V6.79998V6.75868V6.75866C0.999988 5.9537 0.999978 5.28935 1.04419 4.74816C1.09012 4.18606 1.18868 3.66936 1.43598 3.18402C1.81947 2.43137 2.43139 1.81945 3.18404 1.43596C3.66937 1.18867 4.18608 1.0901 4.74818 1.04418C5.28937 0.999958 5.95373 0.999969 6.7587 0.999981Z" fill="#0E2739"/>
</svg>
