<svg width="19" height="19" viewBox="0 0 19 19" fill="none" xmlns="http://www.w3.org/2000/svg">
<path fill-rule="evenodd" clip-rule="evenodd" d="M12.7929 1.79288C14.0118 0.573925 15.9882 0.573924 17.2071 1.79288C18.4261 3.01183 18.4261 4.98814 17.2071 6.20709L15.7071 7.70709L10.7071 12.7071C10.5196 12.8946 10.2652 13 10 13H9H7C6.44772 13 6 12.5523 6 12V9.99998V8.99998C6 8.73477 6.10536 8.48041 6.29289 8.29288L11.2929 3.29288L12.7929 1.79288ZM9.41421 11L8 9.58577V9.4142L12 5.4142L13.5858 6.99998L9.58579 11H9.41421ZM15.7929 3.20709C15.355 2.76919 14.645 2.76919 14.2071 3.20709L13.4142 3.99998L15 5.58577L15.7929 4.79287C16.2308 4.35497 16.2308 3.64499 15.7929 3.20709ZM5.7587 0.999981L5.8 0.999982H6C6.55229 0.999982 7 1.4477 7 1.99998C7 2.55227 6.55229 2.99998 6 2.99998H5.8C4.94342 2.99998 4.36113 3.00076 3.91104 3.03753C3.47262 3.07335 3.24842 3.13828 3.09202 3.21797C2.7157 3.40972 2.40974 3.71568 2.21799 4.092C2.1383 4.2484 2.07337 4.4726 2.03755 4.91102C2.00078 5.36111 2 5.9434 2 6.79998V13.2C2 14.0566 2.00078 14.6389 2.03755 15.0889C2.07337 15.5274 2.1383 15.7516 2.21799 15.908C2.40974 16.2843 2.7157 16.5902 3.09202 16.782C3.24842 16.8617 3.47262 16.9266 3.91104 16.9624C4.36113 16.9992 4.94342 17 5.8 17H12.2C13.0566 17 13.6389 16.9992 14.089 16.9624C14.5274 16.9266 14.7516 16.8617 14.908 16.782C15.2843 16.5902 15.5903 16.2843 15.782 15.908C15.8617 15.7516 15.9266 15.5274 15.9624 15.0889C15.9992 14.6389 16 14.0566 16 13.2V13C16 12.4477 16.4477 12 17 12C17.5523 12 18 12.4477 18 13V13.2V13.2413C18 14.0463 18 14.7106 17.9558 15.2518C17.9099 15.8139 17.8113 16.3306 17.564 16.8159C17.1805 17.5686 16.5686 18.1805 15.816 18.564C15.3306 18.8113 14.8139 18.9099 14.2518 18.9558C13.7106 19 13.0463 19 12.2413 19H12.2H5.8H5.75868C4.95372 19 4.28937 19 3.74818 18.9558C3.18608 18.9099 2.66937 18.8113 2.18404 18.564C1.43139 18.1805 0.819469 17.5686 0.435975 16.8159C0.188685 16.3306 0.0901202 15.8139 0.044195 15.2518C-2.20039e-05 14.7106 -1.18713e-05 14.0463 4.07409e-07 13.2413V13.2413V13.2V6.79998V6.75868V6.75866C-1.18713e-05 5.9537 -2.2005e-05 5.28935 0.044195 4.74816C0.0901202 4.18606 0.188685 3.66936 0.435975 3.18402C0.819469 2.43137 1.43139 1.81945 2.18404 1.43596C2.66937 1.18867 3.18608 1.0901 3.74818 1.04418C4.28937 0.999958 4.95373 0.999969 5.7587 0.999981Z" fill="#0E2739"/>
</svg>
