<svg width="20" height="20" viewBox="0 0 20 20" fill="none" xmlns="http://www.w3.org/2000/svg">
<path fill-rule="evenodd" clip-rule="evenodd" d="M10.6862 2.4509C12.5813 0.555755 15.6539 0.555755 17.5491 2.4509C19.4442 4.34604 19.4442 7.41867 17.5491 9.31382L14.1176 12.7453C12.2225 14.6404 9.14984 14.6404 7.2547 12.7453C6.87567 12.3662 6.87567 11.7517 7.2547 11.3727C7.63373 10.9937 8.24825 10.9937 8.62728 11.3727C9.76437 12.5098 11.6079 12.5098 12.745 11.3727L16.1765 7.94123C17.3136 6.80415 17.3136 4.96057 16.1765 3.82348C15.0394 2.6864 13.1958 2.6864 12.0587 3.82348L11.3724 4.50977C10.9934 4.8888 10.3789 4.8888 9.99986 4.50977C9.62084 4.13075 9.62084 3.51622 9.99986 3.13719L10.6862 2.4509ZM11.3724 8.62753C10.2354 7.49044 8.39178 7.49044 7.2547 8.62752L3.82324 12.059C2.68615 13.1961 2.68615 15.0397 3.82324 16.1767C4.96032 17.3138 6.8039 17.3138 7.94099 16.1767L8.62728 15.4904C9.00631 15.1114 9.62084 15.1114 9.99986 15.4904C10.3789 15.8695 10.3789 16.484 9.99986 16.863L9.31357 17.5493C7.41843 19.4445 4.3458 19.4445 2.45065 17.5493C0.555511 15.6542 0.555511 12.5815 2.45065 10.6864L5.88211 7.25494C7.77726 5.3598 10.8499 5.3598 12.745 7.25494C13.1241 7.63397 13.1241 8.2485 12.745 8.62753C12.366 9.00655 11.7515 9.00655 11.3724 8.62753Z" fill="#0E2739"/>
</svg>
