<svg width="18" height="18" viewBox="0 0 18 18" fill="none" xmlns="http://www.w3.org/2000/svg">
<path fill-rule="evenodd" clip-rule="evenodd" d="M9.68616 1.4509C11.5813 -0.444245 14.6539 -0.444245 16.5491 1.4509C18.4442 3.34604 18.4442 6.41867 16.5491 8.31382L13.1176 11.7453C11.2225 13.6404 8.14984 13.6404 6.2547 11.7453C5.87567 11.3662 5.87567 10.7517 6.2547 10.3727C6.63373 9.99367 7.24825 9.99367 7.62728 10.3727C8.76437 11.5098 10.6079 11.5098 11.745 10.3727L15.1765 6.94123C16.3136 5.80415 16.3136 3.96057 15.1765 2.82348C14.0394 1.6864 12.1958 1.6864 11.0587 2.82348L10.3724 3.50977C9.99342 3.8888 9.37889 3.8888 8.99986 3.50977C8.62084 3.13075 8.62084 2.51622 8.99986 2.13719L9.68616 1.4509ZM10.3724 7.62753C9.23536 6.49044 7.39178 6.49044 6.2547 7.62752L2.82324 11.059C1.68615 12.1961 1.68615 14.0397 2.82324 15.1767C3.96032 16.3138 5.8039 16.3138 6.94099 15.1767L7.62728 14.4904C8.00631 14.1114 8.62084 14.1114 8.99986 14.4904C9.37889 14.8695 9.37889 15.484 8.99986 15.863L8.31357 16.5493C6.41843 18.4445 3.3458 18.4445 1.45065 16.5493C-0.444489 14.6542 -0.444489 11.5815 1.45065 9.6864L4.88211 6.25494C6.77726 4.3598 9.84989 4.3598 11.745 6.25494C12.1241 6.63397 12.1241 7.2485 11.745 7.62753C11.366 8.00655 10.7515 8.00655 10.3724 7.62753Z" fill="#0E2739"/>
</svg>
