<svg width="20" height="20" viewBox="0 0 20 20" fill="none" xmlns="http://www.w3.org/2000/svg">
<path fill-rule="evenodd" clip-rule="evenodd" d="M1 5C1 3.34315 2.34315 2 4 2H8.17157C8.96722 2 9.73028 2.31607 10.2929 2.87868L12.4142 5H16C17.6569 5 19 6.34315 19 8V15C19 16.6569 17.6569 18 16 18H4C2.34315 18 1 16.6569 1 15V5ZM4 4C3.44772 4 3 4.44772 3 5V15C3 15.5523 3.44772 16 4 16H16C16.5523 16 17 15.5523 17 15V8C17 7.44772 16.5523 7 16 7H12.4142C11.8838 7 11.3751 6.78929 11 6.41421L8.87868 4.29289C8.69114 4.10536 8.43679 4 8.17157 4H4Z" fill="#019EF4"/>
</svg>
