<svg width="8" height="14" viewBox="0 0 8 14" fill="none" xmlns="http://www.w3.org/2000/svg">
<path fill-rule="evenodd" clip-rule="evenodd" d="M6.24076 5.15079C6.60018 5.57012 7.23148 5.61868 7.65081 5.25926C8.07014 4.89983 8.1187 4.26853 7.75927 3.84921L4.75927 0.349209C4.56929 0.127563 4.29194 0 4.00002 0C3.70809 0 3.43074 0.127562 3.24076 0.349208L0.240762 3.84921C-0.118661 4.26853 -0.070099 4.89983 0.349226 5.25926C0.768552 5.61868 1.39985 5.57012 1.75927 5.15079L4.00002 2.53659L6.24076 5.15079ZM3.24076 13.6508C3.43074 13.8724 3.70809 14 4.00002 14C4.29194 14 4.56929 13.8724 4.75927 13.6508L7.75927 10.1508C8.1187 9.73147 8.07014 9.10017 7.65081 8.74074C7.23148 8.38132 6.60018 8.42988 6.24076 8.84921L4.00002 11.4634L1.75928 8.84921C1.39985 8.42988 0.768553 8.38132 0.349227 8.74074C-0.0700984 9.10017 -0.11866 9.73147 0.240762 10.1508L3.24076 13.6508Z" fill="#06C267"/>
</svg>
