<svg width="15" height="16" viewBox="0 0 15 16" fill="none" xmlns="http://www.w3.org/2000/svg">
<path fill-rule="evenodd" clip-rule="evenodd" d="M8.5 1C8.5 0.447715 8.05228 0 7.5 0C6.94772 0 6.5 0.447715 6.5 1V7.58579L4.20711 5.29289C3.81658 4.90237 3.18342 4.90237 2.79289 5.29289C2.40237 5.68342 2.40237 6.31658 2.79289 6.70711L6.79289 10.7071C7.18342 11.0976 7.81658 11.0976 8.20711 10.7071L12.2071 6.70711C12.5976 6.31658 12.5976 5.68342 12.2071 5.29289C11.8166 4.90237 11.1834 4.90237 10.7929 5.29289L8.5 7.58579V1ZM1.49956 14C0.947271 14.0002 0.499755 14.4482 0.5 15.0004C0.500246 15.5527 0.94816 16.0002 1.50044 16L13.5004 15.9947C14.0527 15.9944 14.5002 15.5465 14.5 14.9942C14.4997 14.4419 14.0518 13.9944 13.4996 13.9947L1.49956 14Z" fill="#0E2739"/>
</svg>
