<svg width="127" height="24" viewBox="0 0 127 24" fill="none" xmlns="http://www.w3.org/2000/svg">
<path fill-rule="evenodd" clip-rule="evenodd" d="M19.75 6.05467C19.75 5.43908 19.75 5.13128 19.6319 4.91037C19.5256 4.71141 19.3682 4.564 19.1627 4.4709C18.9345 4.36752 18.6159 4.38841 17.9788 4.43018C17.2942 4.47505 16.6303 4.49998 16 4.49998C15.3697 4.49998 14.7058 4.47505 14.0212 4.43018C13.384 4.38841 13.0655 4.36752 12.8373 4.4709C12.6318 4.564 12.4744 4.71141 12.3681 4.91037C12.25 5.13128 12.25 5.43908 12.25 6.05468V17.9453C12.25 18.5609 12.25 18.8687 12.3681 19.0896C12.4744 19.2885 12.6318 19.436 12.8373 19.5291C13.0655 19.6324 13.384 19.6115 14.0212 19.5698C14.7058 19.5249 15.3697 19.5 16 19.5C16.6303 19.5 17.2942 19.5249 17.9788 19.5698C18.6159 19.6115 18.9345 19.6324 19.1627 19.5291C19.3682 19.436 19.5256 19.2885 19.6319 19.0896C19.75 18.8687 19.75 18.5609 19.75 17.9453V6.05467ZM9.60493 20.063C10.1094 19.9879 10.3616 19.9504 10.5435 19.8326C10.7062 19.7272 10.83 19.5837 10.9102 19.4072C11 19.2099 11 18.9603 11 18.4611V5.53881C11 5.03961 11 4.79002 10.9102 4.59271C10.83 4.41628 10.7062 4.27274 10.5435 4.16739C10.3616 4.04957 10.1094 4.01205 9.60493 3.937C9.11545 3.86418 8.62895 3.78685 8.14963 3.7066C7.48469 3.59528 7.15222 3.53962 6.90229 3.6323C6.68035 3.71461 6.5005 3.86685 6.38268 4.07216C6.25 4.30335 6.25 4.63481 6.25 5.29775V18.7022C6.25 19.3651 6.25 19.6966 6.38268 19.9278C6.5005 20.1331 6.68035 20.2853 6.90229 20.3677C7.15222 20.4603 7.48469 20.4047 8.14963 20.2934C8.62895 20.2131 9.11545 20.1358 9.60493 20.063ZM22.3951 20.063C21.8906 19.9879 21.6384 19.9504 21.4565 19.8326C21.2938 19.7272 21.17 19.5837 21.0898 19.4072C21 19.2099 21 18.9603 21 18.4611V5.53881C21 5.03961 21 4.79002 21.0898 4.59271C21.17 4.41628 21.2938 4.27274 21.4565 4.16739C21.6384 4.04957 21.8906 4.01205 22.3951 3.937C22.8846 3.86418 23.371 3.78685 23.8504 3.7066C24.5153 3.59528 24.8478 3.53962 25.0977 3.6323C25.3196 3.71461 25.4995 3.86685 25.6173 4.07216C25.75 4.30335 25.75 4.63481 25.75 5.29775V18.7022C25.75 19.3651 25.75 19.6966 25.6173 19.9278C25.4995 20.1331 25.3196 20.2853 25.0977 20.3677C24.8478 20.4603 24.5153 20.4047 23.8504 20.2934C23.371 20.2131 22.8846 20.1358 22.3951 20.063ZM3.7165 2.85922C4.17933 2.95776 4.41074 3.00703 4.57948 3.12701C4.72957 3.23373 4.84467 3.37591 4.9178 3.54494C5 3.73496 5 3.96844 5 4.43541V19.5645C5 20.0315 5 20.265 4.9178 20.455C4.84467 20.624 4.72957 20.7662 4.57947 20.8729C4.41074 20.9929 4.17933 21.0422 3.7165 21.1407C3.28545 21.2325 2.88121 21.3212 2.50971 21.4044C1.62824 21.602 1.1875 21.7007 0.860456 21.5935C0.568457 21.4977 0.333486 21.3096 0.176183 21.0456C0 20.7499 0 20.3061 0 19.4184V4.58159C0 3.6939 0 3.25005 0.176183 2.95438C0.333486 2.69039 0.568457 2.50225 0.860456 2.40648C1.1875 2.29922 1.62824 2.39799 2.50971 2.59554C2.88121 2.6788 3.28545 2.76745 3.7165 2.85922ZM28.2835 2.85922C27.8207 2.95776 27.5893 3.00703 27.4205 3.12701C27.2704 3.23373 27.1553 3.37591 27.0822 3.54494C27 3.73496 27 3.96844 27 4.43541V19.5645C27 20.0315 27 20.265 27.0822 20.455C27.1553 20.624 27.2704 20.7662 27.4205 20.8729C27.5893 20.9929 27.8207 21.0422 28.2835 21.1407C28.7146 21.2325 29.1188 21.3212 29.4903 21.4044C30.3718 21.602 30.8125 21.7007 31.1395 21.5935C31.4315 21.4977 31.6665 21.3096 31.8238 21.0456C32 20.7499 32 20.3061 32 19.4184V4.58159C32 3.6939 32 3.25005 31.8238 2.95438C31.6665 2.69039 31.4315 2.50225 31.1395 2.40648C30.8125 2.29922 30.3718 2.39799 29.4903 2.59554C29.1188 2.6788 28.7146 2.76745 28.2835 2.85922Z" fill="url(#paint0_radial_734_22267)"/>
<path d="M41.4347 19V4.45455H46.8892C48.0066 4.45455 48.9441 4.66288 49.7017 5.07955C50.464 5.49621 51.0393 6.06913 51.4276 6.7983C51.8205 7.52273 52.017 8.34659 52.017 9.26989C52.017 10.2027 51.8205 11.0312 51.4276 11.7557C51.0346 12.4801 50.4545 13.0507 49.6875 13.4673C48.9205 13.8793 47.9759 14.0852 46.8537 14.0852H43.2386V11.919H46.4986C47.152 11.919 47.687 11.8054 48.1037 11.5781C48.5204 11.3509 48.8281 11.0384 49.027 10.6406C49.2306 10.2429 49.3324 9.78598 49.3324 9.26989C49.3324 8.75379 49.2306 8.29924 49.027 7.90625C48.8281 7.51326 48.518 7.20786 48.0966 6.99006C47.6799 6.76752 47.1425 6.65625 46.4844 6.65625H44.0696V19H41.4347ZM56.936 19.2202C56.2447 19.2202 55.6221 19.0971 55.0681 18.8509C54.5189 18.5999 54.0833 18.2306 53.7613 17.7429C53.4441 17.2552 53.2854 16.6539 53.2854 15.9389C53.2854 15.3234 53.3991 14.8144 53.6263 14.4119C53.8536 14.0095 54.1638 13.6875 54.5567 13.446C54.9497 13.2045 55.3924 13.0223 55.8849 12.8991C56.382 12.7713 56.8958 12.679 57.4261 12.6222C58.0653 12.5559 58.5837 12.4967 58.9815 12.4446C59.3792 12.3878 59.668 12.3026 59.8479 12.1889C60.0326 12.0705 60.1249 11.8883 60.1249 11.642V11.5994C60.1249 11.0644 59.9663 10.6501 59.6491 10.3565C59.3318 10.063 58.8749 9.91619 58.2783 9.91619C57.6486 9.91619 57.1491 10.0535 56.7798 10.3281C56.4152 10.6027 56.169 10.9271 56.0411 11.3011L53.6406 10.9602C53.8299 10.2973 54.1424 9.74337 54.5781 9.2983C55.0137 8.84848 55.5463 8.51231 56.1761 8.28977C56.8058 8.0625 57.5018 7.94886 58.2641 7.94886C58.7897 7.94886 59.3129 8.01042 59.8337 8.13352C60.3546 8.25663 60.8304 8.46023 61.2613 8.74432C61.6922 9.02367 62.0378 9.40483 62.2982 9.88778C62.5634 10.3707 62.696 10.9744 62.696 11.6989V19H60.2244V17.5014H60.1391C59.9829 17.8045 59.7627 18.0885 59.4786 18.3537C59.1993 18.6141 58.8465 18.8248 58.4204 18.9858C57.999 19.142 57.5042 19.2202 56.936 19.2202ZM57.6036 17.331C58.1197 17.331 58.5672 17.2292 58.946 17.0256C59.3247 16.8172 59.6159 16.5426 59.8195 16.2017C60.0279 15.8608 60.132 15.4891 60.132 15.0866V13.8011C60.0515 13.8674 59.9142 13.929 59.7201 13.9858C59.5307 14.0426 59.3176 14.0923 59.0809 14.1349C58.8442 14.1776 58.6098 14.2154 58.3778 14.2486C58.1458 14.2817 57.9445 14.3101 57.7741 14.3338C57.3906 14.3859 57.0473 14.4711 56.7442 14.5895C56.4412 14.7079 56.2021 14.8736 56.0269 15.0866C55.8517 15.295 55.7641 15.5649 55.7641 15.8963C55.7641 16.3698 55.937 16.7273 56.2826 16.9688C56.6282 17.2102 57.0686 17.331 57.6036 17.331ZM67.6522 12.608V19H65.0812V8.09091H67.5386V9.9446H67.6664C67.9174 9.33381 68.3174 8.84848 68.8667 8.48864C69.4207 8.12879 70.1049 7.94886 70.9192 7.94886C71.6721 7.94886 72.3279 8.10985 72.8866 8.43182C73.45 8.75379 73.8856 9.22017 74.1934 9.83097C74.5059 10.4418 74.6598 11.1828 74.655 12.054V19H72.084V12.4517C72.084 11.7225 71.8946 11.152 71.5158 10.7401C71.1418 10.3281 70.6233 10.1222 69.9604 10.1222C69.5106 10.1222 69.1105 10.2216 68.7602 10.4205C68.4145 10.6146 68.1423 10.8963 67.9434 11.2656C67.7493 11.6349 67.6522 12.0824 67.6522 12.608ZM81.8272 19.2131C80.7619 19.2131 79.8386 18.9787 79.0573 18.5099C78.2761 18.0412 77.67 17.3854 77.2391 16.5426C76.813 15.6998 76.5999 14.715 76.5999 13.5881C76.5999 12.4612 76.813 11.474 77.2391 10.6264C77.67 9.77888 78.2761 9.12074 79.0573 8.65199C79.8386 8.18324 80.7619 7.94886 81.8272 7.94886C82.8925 7.94886 83.8158 8.18324 84.5971 8.65199C85.3783 9.12074 85.982 9.77888 86.4082 10.6264C86.839 11.474 87.0545 12.4612 87.0545 13.5881C87.0545 14.715 86.839 15.6998 86.4082 16.5426C85.982 17.3854 85.3783 18.0412 84.5971 18.5099C83.8158 18.9787 82.8925 19.2131 81.8272 19.2131ZM81.8414 17.1534C82.4191 17.1534 82.902 16.9948 83.2903 16.6776C83.6785 16.3556 83.9674 15.9247 84.1567 15.3849C84.3509 14.8452 84.4479 14.2438 84.4479 13.581C84.4479 12.9134 84.3509 12.3097 84.1567 11.7699C83.9674 11.2254 83.6785 10.7921 83.2903 10.4702C82.902 10.1482 82.4191 9.98722 81.8414 9.98722C81.2496 9.98722 80.7571 10.1482 80.3641 10.4702C79.9759 10.7921 79.6847 11.2254 79.4906 11.7699C79.3012 12.3097 79.2065 12.9134 79.2065 13.581C79.2065 14.2438 79.3012 14.8452 79.4906 15.3849C79.6847 15.9247 79.9759 16.3556 80.3641 16.6776C80.7571 16.9948 81.2496 17.1534 81.8414 17.1534ZM94.2284 19.1989C93.2057 19.1989 92.2966 19.0237 91.5011 18.6733C90.7104 18.3229 90.0854 17.8352 89.6261 17.2102C89.1669 16.5852 88.923 15.8632 88.8946 15.044H91.5651C91.5887 15.437 91.7189 15.7803 91.9557 16.0739C92.1924 16.3627 92.5073 16.5876 92.9003 16.7486C93.2933 16.9096 93.7336 16.9901 94.2213 16.9901C94.7421 16.9901 95.2038 16.9001 95.6063 16.7202C96.0087 16.5355 96.3236 16.2798 96.5509 15.9531C96.7781 15.6264 96.8894 15.25 96.8847 14.8239C96.8894 14.3835 96.7758 13.9953 96.5438 13.6591C96.3117 13.3229 95.9756 13.0601 95.5352 12.8707C95.0996 12.6813 94.5741 12.5866 93.9585 12.5866H92.673V10.5554H93.9585C94.4652 10.5554 94.9079 10.4678 95.2866 10.2926C95.6702 10.1174 95.9708 9.87121 96.1886 9.55398C96.4064 9.23201 96.513 8.86032 96.5082 8.43892C96.513 8.02699 96.4206 7.66951 96.2313 7.36648C96.0466 7.05871 95.7838 6.8196 95.4429 6.64915C95.1067 6.47869 94.7114 6.39347 94.2568 6.39347C93.8117 6.39347 93.3998 6.47396 93.021 6.63494C92.6422 6.79593 92.3368 7.02557 92.1048 7.32386C91.8728 7.61742 91.7497 7.9678 91.7355 8.375H89.2C89.2189 7.56061 89.4533 6.84564 89.9031 6.23011C90.3577 5.60985 90.9637 5.12689 91.7213 4.78125C92.4789 4.43087 93.3288 4.25568 94.271 4.25568C95.2417 4.25568 96.0845 4.43797 96.7994 4.80256C97.5191 5.1624 98.0755 5.64773 98.4685 6.25852C98.8615 6.86932 99.058 7.54403 99.058 8.28267C99.0627 9.1018 98.8212 9.78835 98.3335 10.3423C97.8506 10.8963 97.2161 11.2585 96.4301 11.429V11.5426C97.4528 11.6847 98.2365 12.0634 98.781 12.679C99.3302 13.2898 99.6025 14.0497 99.5977 14.9588C99.5977 15.7732 99.3657 16.5024 98.9017 17.1463C98.4424 17.7855 97.808 18.2874 96.9983 18.652C96.1934 19.0166 95.2701 19.1989 94.2284 19.1989ZM107.162 19.1989C106.466 19.1941 105.787 19.0734 105.124 18.8366C104.461 18.5952 103.864 18.2045 103.334 17.6648C102.804 17.1203 102.382 16.3982 102.07 15.4986C101.757 14.5942 101.604 13.4744 101.608 12.1392C101.608 10.8939 101.741 9.78362 102.006 8.80824C102.271 7.83286 102.652 7.009 103.15 6.33665C103.647 5.65956 104.246 5.14347 104.946 4.78835C105.652 4.43324 106.44 4.25568 107.311 4.25568C108.225 4.25568 109.035 4.43561 109.74 4.79545C110.451 5.1553 111.024 5.64773 111.459 6.27273C111.895 6.89299 112.165 7.59375 112.269 8.375H109.676C109.544 7.81629 109.272 7.37121 108.86 7.03977C108.453 6.7036 107.936 6.53551 107.311 6.53551C106.303 6.53551 105.526 6.97348 104.982 7.84943C104.442 8.72538 104.17 9.92803 104.165 11.4574H104.265C104.497 11.0407 104.797 10.6832 105.167 10.3849C105.536 10.0866 105.953 9.85701 106.417 9.69602C106.885 9.5303 107.38 9.44744 107.901 9.44744C108.753 9.44744 109.518 9.65104 110.195 10.0582C110.877 10.4654 111.417 11.0265 111.814 11.7415C112.212 12.4517 112.408 13.2661 112.404 14.1847C112.408 15.1411 112.191 16.0005 111.75 16.7628C111.31 17.5204 110.697 18.117 109.911 18.5526C109.125 18.9882 108.209 19.2036 107.162 19.1989ZM107.148 17.0682C107.664 17.0682 108.126 16.9427 108.533 16.6918C108.94 16.4408 109.262 16.1023 109.499 15.6761C109.736 15.25 109.852 14.7718 109.847 14.2415C109.852 13.7206 109.738 13.2495 109.506 12.8281C109.279 12.4067 108.964 12.0729 108.561 11.8267C108.159 11.5805 107.7 11.4574 107.184 11.4574C106.8 11.4574 106.443 11.5308 106.111 11.6776C105.78 11.8243 105.491 12.0279 105.245 12.2884C104.998 12.544 104.804 12.8423 104.662 13.1832C104.525 13.5194 104.454 13.8793 104.449 14.2628C104.454 14.7694 104.572 15.2358 104.804 15.6619C105.036 16.0881 105.356 16.429 105.763 16.6847C106.17 16.9403 106.632 17.0682 107.148 17.0682ZM119.981 19.277C118.811 19.277 117.807 18.9811 116.969 18.3892C116.136 17.7926 115.494 16.9332 115.045 15.8111C114.6 14.6842 114.377 13.3277 114.377 11.7415C114.382 10.1553 114.607 8.80587 115.052 7.69318C115.502 6.57576 116.143 5.72348 116.976 5.13636C117.815 4.54924 118.816 4.25568 119.981 4.25568C121.146 4.25568 122.147 4.54924 122.985 5.13636C123.823 5.72348 124.465 6.57576 124.91 7.69318C125.36 8.81061 125.584 10.16 125.584 11.7415C125.584 13.3324 125.36 14.6913 124.91 15.8182C124.465 16.9403 123.823 17.7973 122.985 18.3892C122.152 18.9811 121.15 19.277 119.981 19.277ZM119.981 17.054C120.89 17.054 121.607 16.6065 122.133 15.7116C122.663 14.812 122.928 13.4886 122.928 11.7415C122.928 10.5862 122.807 9.61553 122.566 8.82955C122.325 8.04356 121.984 7.4517 121.543 7.05398C121.103 6.65152 120.582 6.45028 119.981 6.45028C119.076 6.45028 118.361 6.90009 117.836 7.79972C117.31 8.6946 117.045 10.0085 117.04 11.7415C117.036 12.9015 117.152 13.8769 117.388 14.6676C117.63 15.4583 117.971 16.0549 118.411 16.4574C118.851 16.8551 119.375 17.054 119.981 17.054Z" fill="#0E2739"/>
<defs>
<radialGradient id="paint0_radial_734_22267" cx="0" cy="0" r="1" gradientUnits="userSpaceOnUse" gradientTransform="translate(16 11.9999) rotate(90) scale(9.96786 23.9224)">
<stop offset="0.21875" stop-color="#019EF4"/>
<stop offset="1" stop-color="#1DF1FF"/>
</radialGradient>
</defs>
</svg>
